# xmcd
#
# Track frame offsets: 
#        150
#        12413
#        26201
#        37106
#        50875
#        63564
#        74521
#        85151
#        95951
#        108481
#        122101
#        130702
#        143174
#        156840
#        169055
#        178160
#        190313
#        202637
#        211516
#        224103
#        233534
#        246140
#        257872
#        271409
#        285118
#        296950
#        309258
#        319379
#        331687
#        343787
#
# Disc length: 4765 seconds
#
# Revision: 0
# Processed by: cddbd v1.5.2PL0 Copyright (c) Steve Scherf et al.
# Submitted via: ExactAudioCopy v1.0b3
#
DISCID=d3129b1e
DTITLE=Litte Walter - little walter collection
DYEAR=1956
DGENRE=Blues
TTITLE0=Key To The Highway
TTITLE1=Blues With A Feeling
TTITLE2=My Baby Is Sweeter
TTITLE3=Take Me Back
TTITLE4=Everything's Gonna Be Alright
TTITLE5=Southern Feeling
TTITLE6=Who
TTITLE7=Just You Fool
TTITLE8=Thunder Bird
TTITLE9=You Better Watch Yourself
TTITLE10=Rock Bottom
TTITLE11=Off The Wall
TTITLE12=You're So Fine
TTITLE13=Snake Dancer
TTITLE14=I Had My Fun
TTITLE15=Juke
TTITLE16=Oh Baby
TTITLE17=Crazy Mixed Up World
TTITLE18=Boom Boom Out Goes The Light
TTITLE19=Nobody But You
TTITLE20=Back Track
TTITLE21=My Babe
TTITLE22=Teenage Beat
TTITLE23=Flying Saucer
TTITLE24=It's Too Late Brother
TTITLE25=Dead President
TTITLE26=Hate To See You Go
TTITLE27=Tell Me Mama
TTITLE28=I Got To Go
TTITLE29=It Ain't Right
EXTD=
EXTT0=
EXTT1=
EXTT2=
EXTT3=
EXTT4=
EXTT5=
EXTT6=
EXTT7=
EXTT8=
EXTT9=
EXTT10=
EXTT11=
EXTT12=
EXTT13=
EXTT14=
EXTT15=
EXTT16=
EXTT17=
EXTT18=
EXTT19=
EXTT20=
EXTT21=
EXTT22=
EXTT23=
EXTT24=
EXTT25=
EXTT26=
EXTT27=
EXTT28=
EXTT29=
PLAYORDER=
